# xmcd
#
# Track frame offsets: 
#        150
#        14779
#        38530
#        56577
#        74257
#        101614
#        114986
#        132030
#        147129
#        169459
#        194400
#        206403
#        226275
#        245518
#        258680
#        284012
#        308364
#        326130
#
# Disc length: 4782 seconds
#
# Revision: 0
# Processed by: cddbd v1.5.2PL0 Copyright (c) Steve Scherf et al.
# Submitted via: ExactAudioCopy v1.3
#
DISCID=0b12ac12
DTITLE=Various Artist - Blues - Golden Age '60s -'70s  vol.11  CD2
DYEAR=2018
DGENRE=Rock
TTITLE0=Steppenwolf (1968) - Sookie Sookie 
TTITLE1=Johnny Winter - 1971 - Be Careful With A Fool
TTITLE2=Santana - 1969 - Evil Ways
TTITLE3=Grand Funk (1974) - To Get Back In
TTITLE4=Shocking Blue - 1970 - Daemon Lover
TTITLE5=Dr. Feelgood (1974) - Roxette
TTITLE6=Creedence Clearwater Revival (1970) - Hideaway
TTITLE7=Geordie (1973) - Old Time Rocker
TTITLE8=Downchild Blues Band - 1975 - Tell Me Baby
TTITLE9=Ten Years After - 1969 - I Woke This Morning
TTITLE10=Stan Webb's Chicken Shack - 1978 - Rich Man's Blues
TTITLE11=Humble Pie - 1974 - No Money Down
TTITLE12=Cuby and Blizzards - 1966 - Five Long Years
TTITLE13=John Dummer's Famous Music Band - 1970 - Fine Looking Woman
TTITLE14=Livin' Blues - 1976 - Shylina
TTITLE15=Rory Gallagher (1971) - I'm Not Awake Yet
TTITLE16=Little Feat (1973) - Dixie Chicken
TTITLE17=Roy Buchanan - 1971 - Roy's Bluz
EXTD=
EXTT0=
EXTT1=
EXTT2=
EXTT3=
EXTT4=
EXTT5=
EXTT6=
EXTT7=
EXTT8=
EXTT9=
EXTT10=
EXTT11=
EXTT12=
EXTT13=
EXTT14=
EXTT15=
EXTT16=
EXTT17=
PLAYORDER=
